<svg width="1000" height="519" viewBox="0 0 1000 519" fill="none" xmlns="http://www.w3.org/2000/svg">
<mask id="mask0_46_83" style="mask-type:alpha" maskUnits="userSpaceOnUse" x="3" y="6" width="994" height="508">
<path fill-rule="evenodd" clip-rule="evenodd" d="M129.824 6C59.7812 6 3 62.7812 3 132.824V259.649V386.473C3 456.517 59.7812 513.298 129.824 513.298H869.634C939.677 513.298 996.458 456.517 996.458 386.473V259.649V132.824C996.458 62.7812 939.677 6 869.634 6H129.824ZM150.96 62.3667C100.373 62.3667 59.3647 103.375 59.3647 153.962V259.649V365.336C59.3647 415.923 100.373 456.932 150.96 456.932H848.495C899.082 456.932 940.09 415.923 940.09 365.336V259.649V153.962C940.09 103.375 899.082 62.3667 848.495 62.3667H150.96Z" fill="#FFD600"/>
</mask>
<g mask="url(#mask0_46_83)">
<path d="M3 132.824C3 62.7812 59.7812 6 129.824 6H869.634C939.677 6 996.458 62.7812 996.458 132.824V259.649H3V132.824Z" fill="#005BBC"/>
<path d="M3 259.649H996.458V386.473C996.458 456.517 939.677 513.298 869.634 513.298H129.824C59.7812 513.298 3 456.517 3 386.473V259.649Z" fill="#FFD600"/>
</g>
<path d="M198.583 362.799C194.245 362.799 191.043 361.848 188.978 359.945C187.119 357.831 186.189 354.554 186.189 350.115V153.506C186.189 149.066 187.119 145.895 188.978 143.993C191.043 141.878 194.245 140.821 198.583 140.821H259.932C285.132 140.821 303.619 145.79 315.393 155.726C327.167 165.662 333.054 179.403 333.054 196.95C333.054 207.52 329.853 217.245 323.449 226.124C317.252 234.792 309.3 241.134 299.591 245.151L299.901 246.419C312.088 248.956 322.107 255.193 329.956 265.129C337.805 275.065 341.73 286.164 341.73 298.425C341.73 319.143 335.223 335.105 322.21 346.309C309.403 357.302 290.09 362.799 264.269 362.799H198.583ZM255.284 229.295C264.373 229.295 271.396 227.076 276.353 222.636C281.517 218.196 284.099 212.488 284.099 205.512C284.099 189.868 274.701 182.046 255.904 182.046H233.905V229.295H255.284ZM264.269 321.257C273.358 321.257 280.381 319.038 285.339 314.598C290.296 310.159 292.775 303.816 292.775 295.571C292.775 287.327 289.883 281.196 284.099 277.179C278.316 272.951 270.053 270.837 259.312 270.837H233.905V321.257H264.269Z" fill="black"/>
<path d="M456.611 365.336C428.106 365.336 406.003 358.676 390.305 345.358C374.606 331.828 366.757 312.907 366.757 288.595V150.335C366.757 143.57 372.954 140.187 385.347 140.187H395.882C408.276 140.187 414.472 143.57 414.472 150.335V285.424C414.472 296.628 418.397 305.825 426.246 313.013C434.096 320.2 444.217 323.794 456.611 323.794C469.005 323.794 479.126 320.2 486.976 313.013C495.031 305.825 499.059 296.628 499.059 285.424V150.335C499.059 143.57 505.256 140.187 517.65 140.187H527.875C540.268 140.187 546.465 143.57 546.465 150.335V288.595C546.465 312.907 538.616 331.828 522.917 345.358C507.219 358.676 485.116 365.336 456.611 365.336Z" fill="black"/>
<path d="M606.858 363.433C594.464 363.433 588.267 360.051 588.267 353.286V150.335C588.267 143.57 594.464 140.187 606.858 140.187H617.702C630.096 140.187 636.293 143.57 636.293 150.335V235.32L637.532 235.638L691.445 146.212C693.717 142.196 699.914 140.187 710.035 140.187H724.598C736.165 140.187 741.949 141.773 741.949 144.944C741.949 146.847 741.123 149.066 739.47 151.603L679.671 245.468L747.526 352.017C749.178 354.554 750.005 356.774 750.005 358.676C750.005 361.848 744.221 363.433 732.654 363.433H714.683C704.355 363.433 698.055 361.425 695.782 357.408L637.532 261.006L636.293 261.324V353.286C636.293 360.051 630.096 363.433 617.702 363.433H606.858Z" fill="black"/>
<path d="M783.831 363.75C771.437 363.75 765.24 360.262 765.24 353.286V150.335C765.24 143.358 771.437 139.87 783.831 139.87H794.675C807.069 139.87 813.266 143.358 813.266 150.335V353.286C813.266 360.262 807.069 363.75 794.675 363.75H783.831Z" fill="black"/>
</svg>
